<svg xmlns="http://www.w3.org/2000/svg" viewBox="0 0 160 14" role="img">
  <title>AgentManager</title>

  <!-- ── ICON: pixel window / terminal ─────────────────── -->
  <rect x="2" y="6" width="10" height="6" fill="#FDFAF3"/>
  <rect x="4" y="2" width="2" height="2" fill="#FDFAF3"/>
  <rect x="8" y="2" width="2" height="2" fill="#FDFAF3"/>
  <rect x="0" y="0" width="14" height="2" fill="#1A1714"/>
  <rect x="0" y="2" width="2" height="2" fill="#1A1714"/>
  <rect x="2" y="2" width="2" height="2" fill="#F5A623"/>
  <rect x="6" y="2" width="2" height="2" fill="#3BAD52"/>
  <rect x="10" y="2" width="2" height="2" fill="#4E8BC8"/>
  <rect x="12" y="2" width="2" height="2" fill="#1A1714"/>
  <rect x="0" y="4" width="14" height="2" fill="#1A1714"/>
  <rect x="0" y="6" width="2" height="2" fill="#1A1714"/>
  <rect x="12" y="6" width="2" height="2" fill="#1A1714"/>
  <rect x="0" y="8" width="2" height="2" fill="#1A1714"/>
  <rect x="4" y="8" width="2" height="2" fill="#4E8BC8"/>
  <rect x="12" y="8" width="2" height="2" fill="#1A1714"/>
  <rect x="0" y="10" width="2" height="2" fill="#1A1714"/>
  <rect x="12" y="10" width="2" height="2" fill="#1A1714"/>
  <rect x="0" y="12" width="14" height="2" fill="#1A1714"/>

  <!-- ── WORDMARK: "Agent" (#1A1714) ────────────────────── -->

  <!-- A (x=18) -->
  <rect x="20" y="0" width="6" height="2" fill="#1A1714"/>
  <rect x="18" y="2" width="2" height="2" fill="#1A1714"/>
  <rect x="26" y="2" width="2" height="2" fill="#1A1714"/>
  <rect x="18" y="4" width="2" height="2" fill="#1A1714"/>
  <rect x="26" y="4" width="2" height="2" fill="#1A1714"/>
  <rect x="18" y="6" width="10" height="2" fill="#1A1714"/>
  <rect x="18" y="8" width="2" height="2" fill="#1A1714"/>
  <rect x="26" y="8" width="2" height="2" fill="#1A1714"/>
  <rect x="18" y="10" width="2" height="2" fill="#1A1714"/>
  <rect x="26" y="10" width="2" height="2" fill="#1A1714"/>
  <rect x="18" y="12" width="2" height="2" fill="#1A1714"/>
  <rect x="26" y="12" width="2" height="2" fill="#1A1714"/>

  <!-- g (x=30) -->
  <rect x="32" y="0" width="6" height="2" fill="#1A1714"/>
  <rect x="30" y="2" width="2" height="2" fill="#1A1714"/>
  <rect x="38" y="2" width="2" height="2" fill="#1A1714"/>
  <rect x="30" y="4" width="2" height="2" fill="#1A1714"/>
  <rect x="38" y="4" width="2" height="2" fill="#1A1714"/>
  <rect x="32" y="6" width="8" height="2" fill="#1A1714"/>
  <rect x="38" y="8" width="2" height="2" fill="#1A1714"/>
  <rect x="30" y="10" width="2" height="2" fill="#1A1714"/>
  <rect x="38" y="10" width="2" height="2" fill="#1A1714"/>
  <rect x="32" y="12" width="6" height="2" fill="#1A1714"/>

  <!-- e (x=42) -->
  <rect x="44" y="2" width="6" height="2" fill="#1A1714"/>
  <rect x="42" y="4" width="2" height="2" fill="#1A1714"/>
  <rect x="50" y="4" width="2" height="2" fill="#1A1714"/>
  <rect x="42" y="6" width="10" height="2" fill="#1A1714"/>
  <rect x="42" y="8" width="2" height="2" fill="#1A1714"/>
  <rect x="42" y="10" width="2" height="2" fill="#1A1714"/>
  <rect x="44" y="12" width="6" height="2" fill="#1A1714"/>

  <!-- n (x=54) -->
  <rect x="54" y="2" width="8" height="2" fill="#1A1714"/>
  <rect x="54" y="4" width="2" height="2" fill="#1A1714"/>
  <rect x="62" y="4" width="2" height="2" fill="#1A1714"/>
  <rect x="54" y="6" width="2" height="2" fill="#1A1714"/>
  <rect x="62" y="6" width="2" height="2" fill="#1A1714"/>
  <rect x="54" y="8" width="2" height="2" fill="#1A1714"/>
  <rect x="62" y="8" width="2" height="2" fill="#1A1714"/>
  <rect x="54" y="10" width="2" height="2" fill="#1A1714"/>
  <rect x="62" y="10" width="2" height="2" fill="#1A1714"/>
  <rect x="54" y="12" width="2" height="2" fill="#1A1714"/>
  <rect x="62" y="12" width="2" height="2" fill="#1A1714"/>

  <!-- t (x=66) -->
  <rect x="70" y="0" width="2" height="2" fill="#1A1714"/>
  <rect x="70" y="2" width="2" height="2" fill="#1A1714"/>
  <rect x="66" y="4" width="10" height="2" fill="#1A1714"/>
  <rect x="70" y="6" width="2" height="2" fill="#1A1714"/>
  <rect x="70" y="8" width="2" height="2" fill="#1A1714"/>
  <rect x="70" y="10" width="2" height="2" fill="#1A1714"/>
  <rect x="70" y="12" width="2" height="2" fill="#1A1714"/>

  <!-- ── WORDMARK: "Manager" (#4E8BC8) ─────────────────── -->

  <!-- M (x=78) -->
  <rect x="78" y="0" width="2" height="2" fill="#4E8BC8"/>
  <rect x="86" y="0" width="2" height="2" fill="#4E8BC8"/>
  <rect x="78" y="2" width="4" height="2" fill="#4E8BC8"/>
  <rect x="84" y="2" width="4" height="2" fill="#4E8BC8"/>
  <rect x="78" y="4" width="2" height="2" fill="#4E8BC8"/>
  <rect x="82" y="4" width="2" height="2" fill="#4E8BC8"/>
  <rect x="86" y="4" width="2" height="2" fill="#4E8BC8"/>
  <rect x="78" y="6" width="2" height="2" fill="#4E8BC8"/>
  <rect x="86" y="6" width="2" height="2" fill="#4E8BC8"/>
  <rect x="78" y="8" width="2" height="2" fill="#4E8BC8"/>
  <rect x="86" y="8" width="2" height="2" fill="#4E8BC8"/>
  <rect x="78" y="10" width="2" height="2" fill="#4E8BC8"/>
  <rect x="86" y="10" width="2" height="2" fill="#4E8BC8"/>
  <rect x="78" y="12" width="2" height="2" fill="#4E8BC8"/>
  <rect x="86" y="12" width="2" height="2" fill="#4E8BC8"/>

  <!-- a (x=90) -->
  <rect x="92" y="2" width="6" height="2" fill="#4E8BC8"/>
  <rect x="98" y="4" width="2" height="2" fill="#4E8BC8"/>
  <rect x="92" y="6" width="8" height="2" fill="#4E8BC8"/>
  <rect x="90" y="8" width="2" height="2" fill="#4E8BC8"/>
  <rect x="98" y="8" width="2" height="2" fill="#4E8BC8"/>
  <rect x="90" y="10" width="2" height="2" fill="#4E8BC8"/>
  <rect x="98" y="10" width="2" height="2" fill="#4E8BC8"/>
  <rect x="92" y="12" width="8" height="2" fill="#4E8BC8"/>

  <!-- n (x=102) -->
  <rect x="102" y="2" width="8" height="2" fill="#4E8BC8"/>
  <rect x="102" y="4" width="2" height="2" fill="#4E8BC8"/>
  <rect x="110" y="4" width="2" height="2" fill="#4E8BC8"/>
  <rect x="102" y="6" width="2" height="2" fill="#4E8BC8"/>
  <rect x="110" y="6" width="2" height="2" fill="#4E8BC8"/>
  <rect x="102" y="8" width="2" height="2" fill="#4E8BC8"/>
  <rect x="110" y="8" width="2" height="2" fill="#4E8BC8"/>
  <rect x="102" y="10" width="2" height="2" fill="#4E8BC8"/>
  <rect x="110" y="10" width="2" height="2" fill="#4E8BC8"/>
  <rect x="102" y="12" width="2" height="2" fill="#4E8BC8"/>
  <rect x="110" y="12" width="2" height="2" fill="#4E8BC8"/>

  <!-- a (x=114) -->
  <rect x="116" y="2" width="6" height="2" fill="#4E8BC8"/>
  <rect x="122" y="4" width="2" height="2" fill="#4E8BC8"/>
  <rect x="116" y="6" width="8" height="2" fill="#4E8BC8"/>
  <rect x="114" y="8" width="2" height="2" fill="#4E8BC8"/>
  <rect x="122" y="8" width="2" height="2" fill="#4E8BC8"/>
  <rect x="114" y="10" width="2" height="2" fill="#4E8BC8"/>
  <rect x="122" y="10" width="2" height="2" fill="#4E8BC8"/>
  <rect x="116" y="12" width="8" height="2" fill="#4E8BC8"/>

  <!-- g (x=126) -->
  <rect x="128" y="0" width="6" height="2" fill="#4E8BC8"/>
  <rect x="126" y="2" width="2" height="2" fill="#4E8BC8"/>
  <rect x="134" y="2" width="2" height="2" fill="#4E8BC8"/>
  <rect x="126" y="4" width="2" height="2" fill="#4E8BC8"/>
  <rect x="134" y="4" width="2" height="2" fill="#4E8BC8"/>
  <rect x="128" y="6" width="8" height="2" fill="#4E8BC8"/>
  <rect x="134" y="8" width="2" height="2" fill="#4E8BC8"/>
  <rect x="126" y="10" width="2" height="2" fill="#4E8BC8"/>
  <rect x="134" y="10" width="2" height="2" fill="#4E8BC8"/>
  <rect x="128" y="12" width="6" height="2" fill="#4E8BC8"/>

  <!-- e (x=138) -->
  <rect x="140" y="2" width="6" height="2" fill="#4E8BC8"/>
  <rect x="138" y="4" width="2" height="2" fill="#4E8BC8"/>
  <rect x="146" y="4" width="2" height="2" fill="#4E8BC8"/>
  <rect x="138" y="6" width="10" height="2" fill="#4E8BC8"/>
  <rect x="138" y="8" width="2" height="2" fill="#4E8BC8"/>
  <rect x="138" y="10" width="2" height="2" fill="#4E8BC8"/>
  <rect x="140" y="12" width="6" height="2" fill="#4E8BC8"/>

  <!-- r (x=150) -->
  <rect x="150" y="4" width="8" height="2" fill="#4E8BC8"/>
  <rect x="150" y="6" width="2" height="2" fill="#4E8BC8"/>
  <rect x="158" y="6" width="2" height="2" fill="#4E8BC8"/>
  <rect x="150" y="8" width="2" height="2" fill="#4E8BC8"/>
  <rect x="150" y="10" width="2" height="2" fill="#4E8BC8"/>
  <rect x="150" y="12" width="2" height="2" fill="#4E8BC8"/>
</svg>
