<svg xmlns="http://www.w3.org/2000/svg" viewBox="0 0 238 21" role="img">
  <title>AgentManager</title>

  <!-- ── ICON: pixel window / terminal (7×7 grid, pixelSize=3) ─ -->
  <rect x="3" y="9" width="15" height="9" fill="#FDFAF3"/>
  <rect x="6" y="3" width="3" height="3" fill="#FDFAF3"/>
  <rect x="12" y="3" width="3" height="3" fill="#FDFAF3"/>
  <rect x="0" y="0" width="21" height="3" fill="#1A1714"/>
  <rect x="0" y="3" width="3" height="3" fill="#1A1714"/>
  <rect x="3" y="3" width="3" height="3" fill="#F5A623"/>
  <rect x="9" y="3" width="3" height="3" fill="#3BAD52"/>
  <rect x="15" y="3" width="3" height="3" fill="#4E8BC8"/>
  <rect x="18" y="3" width="3" height="3" fill="#1A1714"/>
  <rect x="0" y="6" width="21" height="3" fill="#1A1714"/>
  <rect x="0" y="9" width="3" height="3" fill="#1A1714"/>
  <rect x="18" y="9" width="3" height="3" fill="#1A1714"/>
  <rect x="0" y="12" width="3" height="3" fill="#1A1714"/>
  <rect x="6" y="12" width="3" height="3" fill="#4E8BC8"/>
  <rect x="18" y="12" width="3" height="3" fill="#1A1714"/>
  <rect x="0" y="15" width="3" height="3" fill="#1A1714"/>
  <rect x="18" y="15" width="3" height="3" fill="#1A1714"/>
  <rect x="0" y="18" width="21" height="3" fill="#1A1714"/>

  <!-- ── WORDMARK: "Agent" (#1A1714, pixelSize=3) ────────────── -->

  <!-- A (x=25) -->
  <rect x="28" y="0" width="9" height="3" fill="#1A1714"/>
  <rect x="25" y="3" width="3" height="3" fill="#1A1714"/>
  <rect x="37" y="3" width="3" height="3" fill="#1A1714"/>
  <rect x="25" y="6" width="3" height="3" fill="#1A1714"/>
  <rect x="37" y="6" width="3" height="3" fill="#1A1714"/>
  <rect x="25" y="9" width="15" height="3" fill="#1A1714"/>
  <rect x="25" y="12" width="3" height="3" fill="#1A1714"/>
  <rect x="37" y="12" width="3" height="3" fill="#1A1714"/>
  <rect x="25" y="15" width="3" height="3" fill="#1A1714"/>
  <rect x="37" y="15" width="3" height="3" fill="#1A1714"/>
  <rect x="25" y="18" width="3" height="3" fill="#1A1714"/>
  <rect x="37" y="18" width="3" height="3" fill="#1A1714"/>

  <!-- g (x=43) -->
  <rect x="46" y="0" width="9" height="3" fill="#1A1714"/>
  <rect x="43" y="3" width="3" height="3" fill="#1A1714"/>
  <rect x="55" y="3" width="3" height="3" fill="#1A1714"/>
  <rect x="43" y="6" width="3" height="3" fill="#1A1714"/>
  <rect x="55" y="6" width="3" height="3" fill="#1A1714"/>
  <rect x="46" y="9" width="12" height="3" fill="#1A1714"/>
  <rect x="55" y="12" width="3" height="3" fill="#1A1714"/>
  <rect x="43" y="15" width="3" height="3" fill="#1A1714"/>
  <rect x="55" y="15" width="3" height="3" fill="#1A1714"/>
  <rect x="46" y="18" width="9" height="3" fill="#1A1714"/>

  <!-- e (x=61) -->
  <rect x="64" y="3" width="9" height="3" fill="#1A1714"/>
  <rect x="61" y="6" width="3" height="3" fill="#1A1714"/>
  <rect x="73" y="6" width="3" height="3" fill="#1A1714"/>
  <rect x="61" y="9" width="15" height="3" fill="#1A1714"/>
  <rect x="61" y="12" width="3" height="3" fill="#1A1714"/>
  <rect x="61" y="15" width="3" height="3" fill="#1A1714"/>
  <rect x="64" y="18" width="9" height="3" fill="#1A1714"/>

  <!-- n (x=79) -->
  <rect x="79" y="3" width="12" height="3" fill="#1A1714"/>
  <rect x="79" y="6" width="3" height="3" fill="#1A1714"/>
  <rect x="91" y="6" width="3" height="3" fill="#1A1714"/>
  <rect x="79" y="9" width="3" height="3" fill="#1A1714"/>
  <rect x="91" y="9" width="3" height="3" fill="#1A1714"/>
  <rect x="79" y="12" width="3" height="3" fill="#1A1714"/>
  <rect x="91" y="12" width="3" height="3" fill="#1A1714"/>
  <rect x="79" y="15" width="3" height="3" fill="#1A1714"/>
  <rect x="91" y="15" width="3" height="3" fill="#1A1714"/>
  <rect x="79" y="18" width="3" height="3" fill="#1A1714"/>
  <rect x="91" y="18" width="3" height="3" fill="#1A1714"/>

  <!-- t (x=97) -->
  <rect x="103" y="0" width="3" height="3" fill="#1A1714"/>
  <rect x="103" y="3" width="3" height="3" fill="#1A1714"/>
  <rect x="97" y="6" width="15" height="3" fill="#1A1714"/>
  <rect x="103" y="9" width="3" height="3" fill="#1A1714"/>
  <rect x="103" y="12" width="3" height="3" fill="#1A1714"/>
  <rect x="103" y="15" width="3" height="3" fill="#1A1714"/>
  <rect x="103" y="18" width="3" height="3" fill="#1A1714"/>

  <!-- ── WORDMARK: "Manager" (#4E8BC8, pixelSize=3) ──────────── -->

  <!-- M (x=115) -->
  <rect x="115" y="0" width="3" height="3" fill="#4E8BC8"/>
  <rect x="127" y="0" width="3" height="3" fill="#4E8BC8"/>
  <rect x="115" y="3" width="6" height="3" fill="#4E8BC8"/>
  <rect x="124" y="3" width="6" height="3" fill="#4E8BC8"/>
  <rect x="115" y="6" width="3" height="3" fill="#4E8BC8"/>
  <rect x="121" y="6" width="3" height="3" fill="#4E8BC8"/>
  <rect x="127" y="6" width="3" height="3" fill="#4E8BC8"/>
  <rect x="115" y="9" width="3" height="3" fill="#4E8BC8"/>
  <rect x="127" y="9" width="3" height="3" fill="#4E8BC8"/>
  <rect x="115" y="12" width="3" height="3" fill="#4E8BC8"/>
  <rect x="127" y="12" width="3" height="3" fill="#4E8BC8"/>
  <rect x="115" y="15" width="3" height="3" fill="#4E8BC8"/>
  <rect x="127" y="15" width="3" height="3" fill="#4E8BC8"/>
  <rect x="115" y="18" width="3" height="3" fill="#4E8BC8"/>
  <rect x="127" y="18" width="3" height="3" fill="#4E8BC8"/>

  <!-- a (x=133) -->
  <rect x="136" y="3" width="9" height="3" fill="#4E8BC8"/>
  <rect x="145" y="6" width="3" height="3" fill="#4E8BC8"/>
  <rect x="136" y="9" width="12" height="3" fill="#4E8BC8"/>
  <rect x="133" y="12" width="3" height="3" fill="#4E8BC8"/>
  <rect x="145" y="12" width="3" height="3" fill="#4E8BC8"/>
  <rect x="133" y="15" width="3" height="3" fill="#4E8BC8"/>
  <rect x="145" y="15" width="3" height="3" fill="#4E8BC8"/>
  <rect x="136" y="18" width="12" height="3" fill="#4E8BC8"/>

  <!-- n (x=151) -->
  <rect x="151" y="3" width="12" height="3" fill="#4E8BC8"/>
  <rect x="151" y="6" width="3" height="3" fill="#4E8BC8"/>
  <rect x="163" y="6" width="3" height="3" fill="#4E8BC8"/>
  <rect x="151" y="9" width="3" height="3" fill="#4E8BC8"/>
  <rect x="163" y="9" width="3" height="3" fill="#4E8BC8"/>
  <rect x="151" y="12" width="3" height="3" fill="#4E8BC8"/>
  <rect x="163" y="12" width="3" height="3" fill="#4E8BC8"/>
  <rect x="151" y="15" width="3" height="3" fill="#4E8BC8"/>
  <rect x="163" y="15" width="3" height="3" fill="#4E8BC8"/>
  <rect x="151" y="18" width="3" height="3" fill="#4E8BC8"/>
  <rect x="163" y="18" width="3" height="3" fill="#4E8BC8"/>

  <!-- a (x=169) -->
  <rect x="172" y="3" width="9" height="3" fill="#4E8BC8"/>
  <rect x="181" y="6" width="3" height="3" fill="#4E8BC8"/>
  <rect x="172" y="9" width="12" height="3" fill="#4E8BC8"/>
  <rect x="169" y="12" width="3" height="3" fill="#4E8BC8"/>
  <rect x="181" y="12" width="3" height="3" fill="#4E8BC8"/>
  <rect x="169" y="15" width="3" height="3" fill="#4E8BC8"/>
  <rect x="181" y="15" width="3" height="3" fill="#4E8BC8"/>
  <rect x="172" y="18" width="12" height="3" fill="#4E8BC8"/>

  <!-- g (x=187) -->
  <rect x="190" y="0" width="9" height="3" fill="#4E8BC8"/>
  <rect x="187" y="3" width="3" height="3" fill="#4E8BC8"/>
  <rect x="199" y="3" width="3" height="3" fill="#4E8BC8"/>
  <rect x="187" y="6" width="3" height="3" fill="#4E8BC8"/>
  <rect x="199" y="6" width="3" height="3" fill="#4E8BC8"/>
  <rect x="190" y="9" width="12" height="3" fill="#4E8BC8"/>
  <rect x="199" y="12" width="3" height="3" fill="#4E8BC8"/>
  <rect x="187" y="15" width="3" height="3" fill="#4E8BC8"/>
  <rect x="199" y="15" width="3" height="3" fill="#4E8BC8"/>
  <rect x="190" y="18" width="9" height="3" fill="#4E8BC8"/>

  <!-- e (x=205) -->
  <rect x="208" y="3" width="9" height="3" fill="#4E8BC8"/>
  <rect x="205" y="6" width="3" height="3" fill="#4E8BC8"/>
  <rect x="217" y="6" width="3" height="3" fill="#4E8BC8"/>
  <rect x="205" y="9" width="15" height="3" fill="#4E8BC8"/>
  <rect x="205" y="12" width="3" height="3" fill="#4E8BC8"/>
  <rect x="205" y="15" width="3" height="3" fill="#4E8BC8"/>
  <rect x="208" y="18" width="9" height="3" fill="#4E8BC8"/>

  <!-- r (x=223) -->
  <rect x="223" y="6" width="12" height="3" fill="#4E8BC8"/>
  <rect x="223" y="9" width="3" height="3" fill="#4E8BC8"/>
  <rect x="235" y="9" width="3" height="3" fill="#4E8BC8"/>
  <rect x="223" y="12" width="3" height="3" fill="#4E8BC8"/>
  <rect x="223" y="15" width="3" height="3" fill="#4E8BC8"/>
  <rect x="223" y="18" width="3" height="3" fill="#4E8BC8"/>
</svg>
