<svg xmlns="http://www.w3.org/2000/svg" viewBox="0 0 14 14" role="img">
  <title>AgentManager</title>
  <rect x="2" y="6" width="10" height="6" fill="#FDFAF3"/>
  <rect x="4" y="2" width="2" height="2" fill="#FDFAF3"/>
  <rect x="8" y="2" width="2" height="2" fill="#FDFAF3"/>
  <rect x="0" y="0" width="14" height="2" fill="#1A1714"/>
  <rect x="0" y="2" width="2" height="2" fill="#1A1714"/>
  <rect x="2" y="2" width="2" height="2" fill="#F5A623"/>
  <rect x="6" y="2" width="2" height="2" fill="#3BAD52"/>
  <rect x="10" y="2" width="2" height="2" fill="#4E8BC8"/>
  <rect x="12" y="2" width="2" height="2" fill="#1A1714"/>
  <rect x="0" y="4" width="14" height="2" fill="#1A1714"/>
  <rect x="0" y="6" width="2" height="2" fill="#1A1714"/>
  <rect x="12" y="6" width="2" height="2" fill="#1A1714"/>
  <rect x="0" y="8" width="2" height="2" fill="#1A1714"/>
  <rect x="4" y="8" width="2" height="2" fill="#4E8BC8"/>
  <rect x="12" y="8" width="2" height="2" fill="#1A1714"/>
  <rect x="0" y="10" width="2" height="2" fill="#1A1714"/>
  <rect x="12" y="10" width="2" height="2" fill="#1A1714"/>
  <rect x="0" y="12" width="14" height="2" fill="#1A1714"/>
</svg>
