<svg xmlns="http://www.w3.org/2000/svg" viewBox="0 0 820 51" role="img" shape-rendering="crispEdges">
  <title>AgentManager</title>
  <rect x="10" y="0" width="30" height="10" fill="#1A1714"></rect><rect x="80" y="0" width="40" height="10" fill="#1A1714"></rect><rect x="200" y="0" width="20" height="10" fill="#1A1714"></rect><rect x="340" y="0" width="20" height="10" fill="#4E8BC8"></rect><rect x="380" y="0" width="20" height="10" fill="#4E8BC8"></rect><rect x="430" y="0" width="30" height="10" fill="#4E8BC8"></rect><rect x="490" y="0" width="20" height="10" fill="#4E8BC8"></rect><rect x="580" y="0" width="30" height="10" fill="#4E8BC8"></rect><rect x="650" y="0" width="40" height="10" fill="#4E8BC8"></rect><rect x="770" y="0" width="40" height="10" fill="#4E8BC8"></rect><rect x="140" y="0" width="40" height="11" fill="#1A1714"></rect><rect x="280" y="0" width="40" height="11" fill="#1A1714"></rect><rect x="710" y="0" width="40" height="11" fill="#4E8BC8"></rect><rect x="0" y="10" width="50" height="1" fill="#1A1714"></rect><rect x="70" y="10" width="50" height="1" fill="#1A1714"></rect><rect x="420" y="10" width="50" height="1" fill="#4E8BC8"></rect><rect x="570" y="10" width="50" height="1" fill="#4E8BC8"></rect><rect x="640" y="10" width="50" height="1" fill="#4E8BC8"></rect><rect x="770" y="10" width="50" height="1" fill="#4E8BC8"></rect><rect x="0" y="11" width="21" height="1" fill="#1A1714"></rect><rect x="29" y="11" width="21" height="1" fill="#1A1714"></rect><rect x="420" y="11" width="21" height="1" fill="#4E8BC8"></rect><rect x="449" y="11" width="21" height="1" fill="#4E8BC8"></rect><rect x="570" y="11" width="21" height="1" fill="#4E8BC8"></rect><rect x="599" y="11" width="21" height="1" fill="#4E8BC8"></rect><rect x="240" y="0" width="20" height="20" fill="#1A1714"></rect><rect x="530" y="0" width="20" height="20" fill="#4E8BC8"></rect><rect x="200" y="10" width="30" height="10" fill="#1A1714"></rect><rect x="490" y="10" width="30" height="10" fill="#4E8BC8"></rect><rect x="140" y="11" width="20" height="9" fill="#1A1714"></rect><rect x="710" y="11" width="20" height="9" fill="#4E8BC8"></rect><rect x="770" y="11" width="20" height="9" fill="#4E8BC8"></rect><rect x="800" y="11" width="20" height="9" fill="#4E8BC8"></rect><rect x="0" y="12" width="20" height="8" fill="#1A1714"></rect><rect x="30" y="12" width="20" height="8" fill="#1A1714"></rect><rect x="420" y="12" width="20" height="8" fill="#4E8BC8"></rect><rect x="450" y="12" width="20" height="8" fill="#4E8BC8"></rect><rect x="570" y="12" width="20" height="8" fill="#4E8BC8"></rect><rect x="600" y="12" width="20" height="8" fill="#4E8BC8"></rect><rect x="770" y="20" width="50" height="1" fill="#4E8BC8"></rect><rect x="340" y="10" width="60" height="21" fill="#4E8BC8"></rect><rect x="0" y="20" width="50" height="11" fill="#1A1714"></rect><rect x="140" y="20" width="40" height="11" fill="#1A1714"></rect><rect x="200" y="20" width="60" height="11" fill="#1A1714"></rect><rect x="420" y="20" width="50" height="11" fill="#4E8BC8"></rect><rect x="490" y="20" width="60" height="11" fill="#4E8BC8"></rect><rect x="570" y="20" width="50" height="11" fill="#4E8BC8"></rect><rect x="710" y="20" width="40" height="11" fill="#4E8BC8"></rect><rect x="70" y="11" width="20" height="29" fill="#1A1714"></rect><rect x="640" y="11" width="20" height="29" fill="#4E8BC8"></rect><rect x="100" y="20" width="20" height="20" fill="#1A1714"></rect><rect x="670" y="20" width="20" height="20" fill="#4E8BC8"></rect><rect x="770" y="21" width="40" height="19" fill="#4E8BC8"></rect><rect x="140" y="31" width="20" height="9" fill="#1A1714"></rect><rect x="710" y="31" width="20" height="9" fill="#4E8BC8"></rect><rect x="230" y="31" width="30" height="10" fill="#1A1714"></rect><rect x="520" y="31" width="30" height="10" fill="#4E8BC8"></rect><rect x="70" y="40" width="50" height="1" fill="#1A1714"></rect><rect x="640" y="40" width="50" height="1" fill="#4E8BC8"></rect><rect x="770" y="40" width="50" height="1" fill="#4E8BC8"></rect><rect x="290" y="11" width="20" height="40" fill="#1A1714"></rect><rect x="0" y="31" width="20" height="20" fill="#1A1714"></rect><rect x="30" y="31" width="20" height="20" fill="#1A1714"></rect><rect x="200" y="31" width="20" height="20" fill="#1A1714"></rect><rect x="340" y="31" width="20" height="20" fill="#4E8BC8"></rect><rect x="380" y="31" width="20" height="20" fill="#4E8BC8"></rect><rect x="420" y="31" width="20" height="20" fill="#4E8BC8"></rect><rect x="450" y="31" width="20" height="20" fill="#4E8BC8"></rect><rect x="490" y="31" width="20" height="20" fill="#4E8BC8"></rect><rect x="570" y="31" width="20" height="20" fill="#4E8BC8"></rect><rect x="600" y="31" width="20" height="20" fill="#4E8BC8"></rect><rect x="140" y="40" width="40" height="11" fill="#1A1714"></rect><rect x="710" y="40" width="40" height="11" fill="#4E8BC8"></rect><rect x="80" y="41" width="30" height="10" fill="#1A1714"></rect><rect x="240" y="41" width="20" height="10" fill="#1A1714"></rect><rect x="530" y="41" width="20" height="10" fill="#4E8BC8"></rect><rect x="650" y="41" width="30" height="10" fill="#4E8BC8"></rect><rect x="770" y="41" width="20" height="10" fill="#4E8BC8"></rect><rect x="800" y="41" width="20" height="10" fill="#4E8BC8"></rect>
</svg>
